<svg width="195" height="66" viewBox="0 0 195 66" fill="none" xmlns="http://www.w3.org/2000/svg">
<path d="M86.92 49.6L87.24 58H79.2L79.6 50.4L79.56 48.4L75.24 48.32L71.52 48.44L71.48 49.6L71.8 58H63.76L64.16 50.4L63.76 32.12H71.92L71.68 41.92L75.72 42L79.4 41.92L79.2 32.12H87.36L86.92 49.6Z" fill="white"/>
<path d="M106.336 50.16L96.4163 50.24C96.6563 51.1733 97.1096 51.8667 97.7763 52.32C98.4429 52.7467 99.3629 52.96 100.536 52.96C101.843 52.96 103.75 52.6267 106.256 51.96L106.816 52.36L105.616 57.64C103.51 58.2 101.55 58.48 99.7363 58.48C96.4296 58.48 93.8429 57.6 91.9762 55.84C90.1362 54.08 89.2162 51.6533 89.2162 48.56C89.2162 45.4933 90.0962 43.08 91.8562 41.32C93.6162 39.56 96.0296 38.68 99.0963 38.68C101.736 38.68 103.776 39.3733 105.216 40.76C106.683 42.1467 107.416 44.08 107.416 46.56C107.416 47.36 107.336 48.2267 107.176 49.16L106.336 50.16ZM100.816 45.76C100.816 44.3467 100.216 43.64 99.0163 43.64C97.5496 43.64 96.6563 44.5867 96.3363 46.48L100.736 46.32L100.816 45.76Z" fill="white"/>
<path d="M118.39 38.64C120.844 38.64 122.737 39.1467 124.07 40.16C125.404 41.1467 126.07 42.5733 126.07 44.44C126.07 44.9733 126.017 46.3867 125.91 48.68C125.804 50.7067 125.75 51.84 125.75 52.08C125.75 52.3733 125.79 52.5867 125.87 52.72C125.977 52.8533 126.124 52.92 126.31 52.92C126.497 52.92 126.724 52.88 126.99 52.8L127.47 53.2L126.79 57.2C125.804 57.8933 124.564 58.2933 123.07 58.4C122.297 58.3467 121.604 58.08 120.99 57.6C120.404 57.12 119.95 56.44 119.63 55.56H119.35C118.177 56.92 116.844 57.88 115.35 58.44C113.324 58.4133 111.697 57.8533 110.47 56.76C109.27 55.64 108.67 54.12 108.67 52.2C108.67 49.24 110.204 47.5467 113.27 47.12L118.95 46.36V45.88C118.95 45.1867 118.804 44.6933 118.51 44.4C118.244 44.1067 117.764 43.96 117.07 43.96C115.577 43.96 113.644 44.6 111.27 45.88L110.79 45.56L109.95 40.64C111.177 40 112.524 39.5067 113.99 39.16C115.484 38.8133 116.95 38.64 118.39 38.64ZM116.67 50.08C116.297 50.1333 116.017 50.28 115.83 50.52C115.67 50.7333 115.59 51.0667 115.59 51.52C115.59 52.5867 116.084 53.12 117.07 53.12C117.71 53.12 118.337 52.9067 118.95 52.48V49.76L116.67 50.08Z" fill="white"/>
<path d="M137.387 49.6L137.708 58H129.908L130.268 50.4L129.988 30.44L137.747 29.92L137.387 49.6Z" fill="white"/>
<path d="M150.677 52.32C151.37 52.32 152.17 52.16 153.077 51.84L153.557 52.44L152.837 56.76C152.277 57.1067 151.61 57.4267 150.837 57.72C150.063 57.9867 149.317 58.1733 148.597 58.28C146.49 58.28 144.837 57.8 143.637 56.84C142.437 55.88 141.837 54.6 141.837 53L142.077 48.84L142.037 43.84H139.557L139.357 43.44L139.677 39.32H142.037L141.997 35.92L149.237 34L149.717 34.44L149.517 39.32H153.437L153.637 39.72L153.317 43.84H149.357L149.117 50.6C149.117 51.24 149.223 51.6933 149.437 51.96C149.677 52.2 150.09 52.32 150.677 52.32Z" fill="white"/>
<path d="M166.57 58L166.97 47.44C166.97 45.8133 166.343 45 165.09 45C164.476 45 163.85 45.1867 163.21 45.56L163.13 49.6L163.45 58H155.65L156.01 50.4L155.73 30.44L163.49 29.92L163.29 41.84H163.49C164.903 40.4267 166.463 39.44 168.17 38.88C170.17 38.88 171.69 39.3333 172.73 40.24C173.796 41.1467 174.303 42.4533 174.25 44.16L174.09 49.6L174.37 58H166.57Z" fill="white"/>
<path d="M183.092 42.56L185.132 50.44H185.532L187.412 43.28L188.172 39.12H194.732L189.212 56.04C188.599 57.88 187.866 59.3867 187.012 60.56C186.159 61.76 185.079 62.76 183.772 63.56C182.466 64.3867 180.772 65.12 178.692 65.76L178.172 65.68C176.839 64.4267 175.706 62.88 174.772 61.04L175.052 60.36C177.506 59.9867 179.772 59.2 181.852 58L175.012 39.24L182.452 38.96L183.092 42.56Z" fill="white"/>
<path d="M0.574028 10.7744C0.206333 10.9272 -0.0235596 11.2969 0.00192177 11.6943L3.41822 64.9727C3.44966 65.4632 3.85659 65.8448 4.348 65.8448L10.8287 65.8448C10.8287 64.3927 12.7504 39.9429 12.7504 39.9429C12.7504 39.9429 12.7376 39.2805 11.311 38.6309C8.49586 37.3443 6.63611 34.491 6.63611 31.2173C6.63611 26.9991 7.75883 22.2795 8.78793 17.9533C9.10135 16.6358 9.40608 15.3548 9.66777 14.1356H10.6868L10.7378 29.0264C10.7378 29.8034 11.1199 30.4403 11.8969 30.4403C12.6357 30.4403 13.0306 29.8926 13.107 29.1792L13.1198 29.0391L14.2662 14.1356H15.2852L16.5973 29.0264C16.5973 29.0434 16.5959 29.0603 16.5944 29.0773C16.5916 29.1113 16.5888 29.1453 16.5973 29.1792C16.6737 29.8926 16.9667 30.4403 17.6927 30.4403C18.4698 30.4403 18.8392 29.8034 18.8392 29.0264L18.8646 14.1356H19.8837V14.1738C20.1324 15.2932 20.4172 16.4696 20.7106 17.6817C21.7693 22.0559 22.9408 26.8958 22.9408 31.2046C22.9408 34.491 21.0301 37.3443 18.2787 38.5927C16.6992 39.306 16.8266 39.9429 16.8266 39.9429C16.8266 39.9429 18.7482 64.1761 18.7482 65.8448L26.9742 65.8448C27.4904 65.8448 27.9083 65.425 27.9058 64.9087L27.6041 0.928258C27.601 0.265616 26.9266 -0.182048 26.3148 0.0723455L0.574028 10.7744Z" fill="#D6E6F2"/>
<path d="M56.0897 22.3901C57.412 22.8201 58.2655 24.1024 58.1519 25.4882L55.0567 63.2452C54.9291 64.8018 53.6286 66.0001 52.0667 66.0001L44.3699 66.0001L45.9138 42.7821L46.4662 42.8176C47.0174 42.853 47.4928 42.4349 47.5283 41.8838L47.5593 41.4002C47.5947 40.8491 47.1766 40.3736 46.6255 40.3382L46.4186 40.3249C46.6005 40.1568 46.7207 39.9212 46.7379 39.6545L47.665 25.2243C47.7004 24.6731 47.2823 24.1976 46.7311 24.1622L45.3178 24.0714C44.7667 24.036 44.2912 24.4541 44.2558 25.0053L43.3287 39.4355C43.3115 39.7022 43.4006 39.9512 43.5595 40.1412L43.3526 40.1279C42.8015 40.0925 42.326 40.5106 42.2906 41.0617L42.2595 41.5452C42.2241 42.0964 42.6422 42.5719 43.1933 42.6073L43.7444 42.6427L42.1959 66.0001L33.4129 66.0001C31.749 66.0001 30.4029 64.6459 30.413 62.982L30.6827 18.2397C30.6949 16.2089 32.6792 14.7768 34.6104 15.4049L56.0897 22.3901Z" fill="#04BE68"/>
</svg>
